<svg width="406" height="104" viewBox="0 0 406 104" fill="none" xmlns="http://www.w3.org/2000/svg">
<circle cx="45" cy="16" r="16" fill="#111213"/>
<path d="M41.6667 10.1667C41.6667 9.28261 42.0179 8.43477 42.643 7.80965C43.2681 7.18453 44.116 6.83334 45 6.83334C45.8841 6.83334 46.7319 7.18453 47.357 7.80965C47.9822 8.43477 48.3334 9.28261 48.3334 10.1667V14.5458C49.3525 15.2555 50.1186 16.2719 50.5201 17.4471C50.9216 18.6222 50.9376 19.8949 50.5657 21.0798C50.1938 22.2647 49.4534 23.3 48.4524 24.035C47.4514 24.77 46.2419 25.1663 45 25.1663C43.7581 25.1663 42.5487 24.77 41.5476 24.035C40.5466 23.3 39.8063 22.2647 39.4344 21.0798C39.0625 19.8949 39.0785 18.6222 39.48 17.4471C39.8815 16.2719 40.6475 15.2555 41.6667 14.5458V10.1667ZM42.62 15.9125C41.8918 16.4192 41.3444 17.1452 41.0574 17.9846C40.7704 18.8241 40.7588 19.7332 41.0244 20.5797C41.2899 21.4262 41.8187 22.1658 42.5338 22.6909C43.2489 23.2161 44.1129 23.4992 45 23.4992C45.8872 23.4992 46.7512 23.2161 47.4662 22.6909C48.1813 22.1658 48.7101 21.4262 48.9757 20.5797C49.2412 19.7332 49.2296 18.8241 48.9426 17.9846C48.6557 17.1452 48.1082 16.4192 47.38 15.9125L46.6667 15.415V10.1667C46.6667 9.72464 46.4911 9.30072 46.1785 8.98816C45.866 8.6756 45.442 8.5 45 8.5C44.558 8.5 44.1341 8.6756 43.8215 8.98816C43.5089 9.30072 43.3334 9.72464 43.3334 10.1667V15.415L42.62 15.9125ZM41.6667 19.3333H48.3334C48.3334 20.2174 47.9822 21.0652 47.357 21.6904C46.7319 22.3155 45.8841 22.6667 45 22.6667C44.116 22.6667 43.2681 22.3155 42.643 21.6904C42.0179 21.0652 41.6667 20.2174 41.6667 19.3333Z" fill="white"/>
<path d="M27.176 73V70.6L33.32 64.576C33.864 64.048 34.304 63.56 34.64 63.112C34.976 62.664 35.224 62.224 35.384 61.792C35.544 61.344 35.624 60.856 35.624 60.328C35.624 59.848 35.528 59.432 35.336 59.08C35.16 58.712 34.848 58.432 34.4 58.24C33.968 58.048 33.36 57.952 32.576 57.952H27.656V55.624C28.408 55.496 29.24 55.384 30.152 55.288C31.08 55.192 32.088 55.144 33.176 55.144C34.552 55.144 35.632 55.336 36.416 55.72C37.2 56.088 37.76 56.632 38.096 57.352C38.432 58.056 38.6 58.896 38.6 59.872C38.6 60.672 38.488 61.408 38.264 62.08C38.056 62.752 37.728 63.4 37.28 64.024C36.848 64.632 36.296 65.264 35.624 65.92L31.136 70.312H39.176V73H27.176ZM49.2528 72.976V68.968H41.2848L40.7088 67.504L46.7808 55.288H49.8288L44.2128 66.448H49.2528V62.536L49.8768 60.64H52.2288V66.448H54.2688V68.488L52.2288 68.968V72.976H49.2528ZM58.6693 61.336C57.7093 61.336 56.9093 61.024 56.2693 60.4C55.6293 59.776 55.3093 58.968 55.3093 57.976C55.3093 57.304 55.4533 56.72 55.7413 56.224C56.0453 55.712 56.4453 55.312 56.9413 55.024C57.4533 54.736 58.0293 54.592 58.6693 54.592C59.6613 54.592 60.4613 54.912 61.0693 55.552C61.6773 56.176 61.9813 56.984 61.9813 57.976C61.9813 58.968 61.6773 59.776 61.0693 60.4C60.4613 61.024 59.6613 61.336 58.6693 61.336ZM58.6693 59.968C59.2453 59.968 59.7093 59.784 60.0613 59.416C60.4293 59.032 60.6133 58.552 60.6133 57.976C60.6133 57.384 60.4293 56.904 60.0613 56.536C59.7093 56.152 59.2453 55.96 58.6693 55.96C58.0933 55.96 57.6133 56.152 57.2293 56.536C56.8613 56.904 56.6773 57.384 56.6773 57.976C56.6773 58.552 56.8613 59.032 57.2293 59.416C57.6133 59.784 58.0933 59.968 58.6693 59.968Z" fill="white"/>
<path d="M3.159 99V90.368H0.208V89.432H7.15V90.368H4.199V99H3.159ZM10.2653 99.052C10.0573 99.052 9.83633 99.0347 9.60233 99C9.36833 98.9567 9.14733 98.8743 8.93933 98.753C8.73133 98.6317 8.56233 98.4497 8.43233 98.207C8.30233 97.9557 8.23733 97.6177 8.23733 97.193V91.356C8.23733 90.9833 8.28933 90.6757 8.39333 90.433C8.50599 90.1817 8.65333 89.9867 8.83533 89.848C9.01733 89.7007 9.22099 89.5967 9.44633 89.536C9.67166 89.4667 9.89699 89.432 10.1223 89.432C10.6597 89.4407 11.158 89.4537 11.6173 89.471C12.0767 89.4797 12.51 89.4927 12.9173 89.51C13.3333 89.5187 13.7363 89.5317 14.1263 89.549V90.381H10.3823C10.0443 90.381 9.77566 90.472 9.57633 90.654C9.37699 90.836 9.27733 91.1263 9.27733 91.525V93.787L13.5543 93.852V94.645L9.27733 94.71V96.959C9.27733 97.2797 9.32933 97.5223 9.43333 97.687C9.54599 97.8517 9.69333 97.96 9.87533 98.012C10.0573 98.064 10.2437 98.09 10.4343 98.09H14.1263V98.922C13.7277 98.948 13.3073 98.9697 12.8653 98.987C12.432 99.0043 11.9943 99.0173 11.5523 99.026C11.119 99.0347 10.69 99.0433 10.2653 99.052ZM15.6072 99L16.6992 89.432H17.7522L20.3002 97.7L22.7962 89.432H23.8622L24.9802 99H23.9792L23.0172 90.615L23.1862 90.641L20.7682 99H19.8192L17.3362 90.654L17.5312 90.628L16.6082 99H15.6072ZM26.7217 99V89.432H30.5307C30.808 89.432 31.0897 89.471 31.3757 89.549C31.6704 89.6183 31.9434 89.7613 32.1947 89.978C32.446 90.186 32.6454 90.4937 32.7927 90.901C32.9487 91.2997 33.0267 91.8283 33.0267 92.487C33.0267 93.163 32.9444 93.709 32.7797 94.125C32.6237 94.5323 32.4157 94.8487 32.1557 95.074C31.9044 95.2907 31.6314 95.438 31.3367 95.516C31.042 95.594 30.756 95.633 30.4787 95.633C30.3487 95.633 30.158 95.6287 29.9067 95.62C29.6554 95.6113 29.3867 95.6027 29.1007 95.594C28.8234 95.5767 28.5634 95.5593 28.3207 95.542C28.078 95.5247 27.8917 95.5117 27.7617 95.503V99H26.7217ZM27.7617 94.71H30.3487C30.652 94.71 30.9294 94.645 31.1807 94.515C31.432 94.385 31.627 94.1597 31.7657 93.839C31.913 93.5183 31.9867 93.072 31.9867 92.5C31.9867 91.9367 31.913 91.5033 31.7657 91.2C31.627 90.888 31.4407 90.6713 31.2067 90.55C30.9727 90.4287 30.717 90.368 30.4397 90.368H27.7617V94.71ZM36.5954 99.052C36.3874 99.052 36.1664 99.0347 35.9324 99C35.6984 98.9567 35.4774 98.8743 35.2694 98.753C35.0614 98.6317 34.8924 98.4497 34.7624 98.207C34.6324 97.9557 34.5674 97.6177 34.5674 97.193V91.356C34.5674 90.9833 34.6194 90.6757 34.7234 90.433C34.8361 90.1817 34.9834 89.9867 35.1654 89.848C35.3474 89.7007 35.5511 89.5967 35.7764 89.536C36.0017 89.4667 36.2271 89.432 36.4524 89.432C36.9897 89.4407 37.4881 89.4537 37.9474 89.471C38.4067 89.4797 38.8401 89.4927 39.2474 89.51C39.6634 89.5187 40.0664 89.5317 40.4564 89.549V90.381H36.7124C36.3744 90.381 36.1057 90.472 35.9064 90.654C35.7071 90.836 35.6074 91.1263 35.6074 91.525V93.787L39.8844 93.852V94.645L35.6074 94.71V96.959C35.6074 97.2797 35.6594 97.5223 35.7634 97.687C35.8761 97.8517 36.0234 97.96 36.2054 98.012C36.3874 98.064 36.5737 98.09 36.7644 98.09H40.4564V98.922C40.0577 98.948 39.6374 98.9697 39.1954 98.987C38.7621 99.0043 38.3244 99.0173 37.8824 99.026C37.4491 99.0347 37.0201 99.0433 36.5954 99.052ZM42.1973 99V89.432H45.9673C46.2793 89.432 46.5826 89.471 46.8773 89.549C47.172 89.6183 47.4363 89.7527 47.6703 89.952C47.913 90.1513 48.1036 90.4373 48.2423 90.81C48.381 91.174 48.4503 91.655 48.4503 92.253C48.4503 92.773 48.394 93.202 48.2813 93.54C48.1686 93.8693 48.0213 94.1337 47.8393 94.333C47.6573 94.5237 47.458 94.6667 47.2413 94.762C47.0333 94.8487 46.8296 94.9093 46.6303 94.944L48.5933 99H47.5403L45.6813 95.087C45.5426 95.087 45.3693 95.0827 45.1613 95.074C44.9533 95.0653 44.7323 95.061 44.4983 95.061C44.2643 95.061 44.0346 95.0567 43.8093 95.048C43.5926 95.0393 43.402 95.035 43.2373 95.035V99H42.1973ZM43.2373 94.242H45.8113C46.0366 94.242 46.2446 94.216 46.4353 94.164C46.626 94.112 46.795 94.0167 46.9423 93.878C47.0896 93.7307 47.2066 93.527 47.2933 93.267C47.38 93.007 47.4233 92.669 47.4233 92.253C47.4233 91.8543 47.38 91.5337 47.2933 91.291C47.2066 91.0397 47.0853 90.849 46.9293 90.719C46.782 90.5803 46.613 90.4893 46.4223 90.446C46.2316 90.394 46.028 90.368 45.8113 90.368H43.2373V94.242ZM49.5475 99L52.8235 89.432H54.1495L57.4255 99H56.3595L55.3975 96.27H51.5495L50.6135 99H49.5475ZM51.8095 95.334H55.1375L53.4865 90.342L51.8095 95.334ZM60.3768 99V90.368H57.4258V89.432H64.3678V90.368H61.4168V99H60.3768ZM68.9751 99.078C68.4377 99.078 67.9524 99.0303 67.5191 98.935C67.0857 98.8397 66.7131 98.6793 66.4011 98.454C66.0977 98.22 65.8637 97.908 65.6991 97.518C65.5344 97.1193 65.4521 96.6253 65.4521 96.036V89.432H66.4921V96.036C66.4921 96.582 66.5874 97.0067 66.7781 97.31C66.9774 97.6133 67.2634 97.83 67.6361 97.96C68.0087 98.0813 68.4551 98.142 68.9751 98.142C69.4951 98.142 69.9414 98.0813 70.3141 97.96C70.6867 97.83 70.9684 97.6133 71.1591 97.31C71.3584 97.0067 71.4581 96.582 71.4581 96.036V89.432H72.4981V96.036C72.4981 96.6253 72.4157 97.1193 72.2511 97.518C72.0864 97.908 71.8481 98.22 71.5361 98.454C71.2327 98.6793 70.8644 98.8397 70.4311 98.935C69.9977 99.0303 69.5124 99.078 68.9751 99.078ZM74.3672 99V89.432H78.1372C78.4492 89.432 78.7525 89.471 79.0472 89.549C79.3419 89.6183 79.6062 89.7527 79.8402 89.952C80.0829 90.1513 80.2735 90.4373 80.4122 90.81C80.5509 91.174 80.6202 91.655 80.6202 92.253C80.6202 92.773 80.5639 93.202 80.4512 93.54C80.3385 93.8693 80.1912 94.1337 80.0092 94.333C79.8272 94.5237 79.6279 94.6667 79.4112 94.762C79.2032 94.8487 78.9995 94.9093 78.8002 94.944L80.7632 99H79.7102L77.8512 95.087C77.7125 95.087 77.5392 95.0827 77.3312 95.074C77.1232 95.0653 76.9022 95.061 76.6682 95.061C76.4342 95.061 76.2045 95.0567 75.9792 95.048C75.7625 95.0393 75.5719 95.035 75.4072 95.035V99H74.3672ZM75.4072 94.242H77.9812C78.2065 94.242 78.4145 94.216 78.6052 94.164C78.7959 94.112 78.9649 94.0167 79.1122 93.878C79.2595 93.7307 79.3765 93.527 79.4632 93.267C79.5499 93.007 79.5932 92.669 79.5932 92.253C79.5932 91.8543 79.5499 91.5337 79.4632 91.291C79.3765 91.0397 79.2552 90.849 79.0992 90.719C78.9519 90.5803 78.7829 90.4893 78.5922 90.446C78.4015 90.394 78.1979 90.368 77.9812 90.368H75.4072V94.242ZM84.3044 99.052C84.0964 99.052 83.8754 99.0347 83.6414 99C83.4074 98.9567 83.1864 98.8743 82.9784 98.753C82.7704 98.6317 82.6014 98.4497 82.4714 98.207C82.3414 97.9557 82.2764 97.6177 82.2764 97.193V91.356C82.2764 90.9833 82.3284 90.6757 82.4324 90.433C82.5451 90.1817 82.6924 89.9867 82.8744 89.848C83.0564 89.7007 83.2601 89.5967 83.4854 89.536C83.7107 89.4667 83.9361 89.432 84.1614 89.432C84.6987 89.4407 85.1971 89.4537 85.6564 89.471C86.1157 89.4797 86.5491 89.4927 86.9564 89.51C87.3724 89.5187 87.7754 89.5317 88.1654 89.549V90.381H84.4214C84.0834 90.381 83.8147 90.472 83.6154 90.654C83.4161 90.836 83.3164 91.1263 83.3164 91.525V93.787L87.5934 93.852V94.645L83.3164 94.71V96.959C83.3164 97.2797 83.3684 97.5223 83.4724 97.687C83.5851 97.8517 83.7324 97.96 83.9144 98.012C84.0964 98.064 84.2827 98.09 84.4734 98.09H88.1654V98.922C87.7667 98.948 87.3464 98.9697 86.9044 98.987C86.4711 99.0043 86.0334 99.0173 85.5914 99.026C85.1581 99.0347 84.7291 99.0433 84.3044 99.052Z" fill="#888B91"/>
<circle cx="220" cy="16" r="16" fill="#111213"/>
<path d="M211.001 21V11.432H212.041V15.761H213.718L216.344 11.432H217.436L214.537 16.216L217.475 21H216.37L213.718 16.697H212.041V21H211.001ZM218.859 21V14.058H219.665L219.886 14.825C220.233 14.5823 220.618 14.3743 221.043 14.201C221.476 14.0277 221.957 13.941 222.486 13.941C222.919 13.941 223.288 14.0407 223.591 14.24C223.903 14.4307 224.137 14.6733 224.293 14.968C224.51 14.812 224.77 14.656 225.073 14.5C225.385 14.344 225.714 14.214 226.061 14.11C226.416 13.9973 226.759 13.941 227.088 13.941C227.591 13.941 228.002 14.0493 228.323 14.266C228.644 14.474 228.878 14.76 229.025 15.124C229.181 15.4793 229.259 15.878 229.259 16.32V21H228.232V16.398C228.232 16.1033 228.171 15.8433 228.05 15.618C227.937 15.384 227.773 15.202 227.556 15.072C227.339 14.942 227.075 14.877 226.763 14.877C226.373 14.877 225.974 14.9507 225.567 15.098C225.16 15.2453 224.783 15.423 224.436 15.631C224.479 15.761 224.51 15.891 224.527 16.021C224.553 16.1423 224.566 16.2723 224.566 16.411V21H223.539V16.398C223.539 16.1033 223.478 15.8433 223.357 15.618C223.244 15.384 223.08 15.202 222.863 15.072C222.655 14.942 222.395 14.877 222.083 14.877C221.797 14.877 221.528 14.9073 221.277 14.968C221.034 15.02 220.8 15.098 220.575 15.202C220.358 15.2973 220.129 15.4143 219.886 15.553V21H218.859Z" fill="white"/>
<path d="M205.144 73.096C204.52 73.096 203.928 73.04 203.368 72.928C202.824 72.8 202.344 72.6 201.928 72.328C201.512 72.04 201.184 71.656 200.944 71.176C200.704 70.696 200.584 70.088 200.584 69.352V66.88C200.584 66.368 200.68 65.92 200.872 65.536C201.064 65.136 201.312 64.8 201.616 64.528C201.936 64.256 202.288 64.08 202.672 64C202.176 63.76 201.8 63.48 201.544 63.16C201.304 62.824 201.144 62.464 201.064 62.08C200.984 61.696 200.944 61.296 200.944 60.88V58.84C200.944 57.944 201.128 57.224 201.496 56.68C201.864 56.136 202.352 55.744 202.96 55.504C203.584 55.264 204.264 55.144 205 55.144H208.336C209.104 55.144 209.776 55.264 210.352 55.504C210.944 55.744 211.408 56.136 211.744 56.68C212.096 57.224 212.272 57.944 212.272 58.84V60.88C212.272 61.104 212.24 61.36 212.176 61.648C212.128 61.936 212.04 62.232 211.912 62.536C211.784 62.824 211.608 63.072 211.384 63.28C211.176 63.488 210.92 63.632 210.616 63.712C211.144 63.824 211.552 64.056 211.84 64.408C212.128 64.744 212.328 65.128 212.44 65.56C212.552 65.992 212.608 66.4 212.608 66.784V69.352C212.608 70.328 212.424 71.088 212.056 71.632C211.688 72.16 211.184 72.536 210.544 72.76C209.904 72.984 209.184 73.096 208.384 73.096H205.144ZM205.624 70.552H207.712C208.432 70.552 208.928 70.408 209.2 70.12C209.488 69.816 209.632 69.384 209.632 68.824V67.024C209.632 66.416 209.48 65.968 209.176 65.68C208.872 65.376 208.368 65.224 207.664 65.224H205.624C205.4 65.224 205.168 65.256 204.928 65.32C204.688 65.384 204.464 65.496 204.256 65.656C204.048 65.8 203.88 65.984 203.752 66.208C203.624 66.432 203.56 66.704 203.56 67.024V68.824C203.56 69.464 203.744 69.912 204.112 70.168C204.496 70.424 205 70.552 205.624 70.552ZM205.624 62.68H207.64C208.088 62.68 208.432 62.6 208.672 62.44C208.928 62.264 209.104 62.04 209.2 61.768C209.312 61.48 209.368 61.176 209.368 60.856V59.536C209.368 58.784 209.216 58.288 208.912 58.048C208.624 57.792 208.224 57.664 207.712 57.664H205.624C205 57.664 204.544 57.8 204.256 58.072C203.984 58.344 203.848 58.832 203.848 59.536V60.856C203.848 61.48 203.984 61.944 204.256 62.248C204.544 62.536 205 62.68 205.624 62.68ZM217.26 73L222.852 58.24H214.812V55.288H225.852L226.668 56.608L220.596 73H217.26ZM234.991 73.144C233.727 73.144 232.527 73.104 231.391 73.024C230.255 72.96 229.239 72.856 228.343 72.712V70.336H233.911C234.567 70.336 235.127 70.28 235.591 70.168C236.055 70.056 236.407 69.856 236.647 69.568C236.887 69.28 237.007 68.864 237.007 68.32V67.432C237.007 66.936 236.887 66.544 236.647 66.256C236.407 65.952 236.087 65.736 235.687 65.608C235.303 65.48 234.879 65.408 234.415 65.392L229.999 65.2V62.944L234.295 62.728C235.079 62.696 235.687 62.544 236.119 62.272C236.567 62 236.791 61.552 236.791 60.928V60.112C236.791 59.392 236.551 58.856 236.071 58.504C235.591 58.136 234.823 57.952 233.767 57.952H228.799V55.576C229.647 55.464 230.583 55.36 231.607 55.264C232.647 55.152 233.759 55.112 234.943 55.144C235.983 55.144 236.855 55.312 237.559 55.648C238.279 55.984 238.823 56.472 239.191 57.112C239.559 57.752 239.743 58.528 239.743 59.44V60.808C239.743 61.304 239.671 61.744 239.527 62.128C239.399 62.496 239.223 62.808 238.999 63.064C238.775 63.32 238.519 63.536 238.231 63.712C237.959 63.872 237.679 63.992 237.391 64.072C237.695 64.152 237.999 64.296 238.303 64.504C238.623 64.696 238.903 64.952 239.143 65.272C239.399 65.576 239.607 65.944 239.767 66.376C239.927 66.808 240.007 67.288 240.007 67.816V68.848C240.007 70.256 239.567 71.328 238.687 72.064C237.807 72.784 236.575 73.144 234.991 73.144Z" fill="white"/>
<path d="M193.741 99L194.833 89.432H195.886L198.434 97.7L200.93 89.432H201.996L203.114 99H202.113L201.151 90.615L201.32 90.641L198.902 99H197.953L195.47 90.654L195.665 90.628L194.742 99H193.741ZM204.855 99V89.432H205.895V99H204.855ZM209.826 99C209.454 99 209.12 98.9437 208.825 98.831C208.539 98.7097 208.314 98.5103 208.149 98.233C207.985 97.947 207.902 97.5613 207.902 97.076V89.432H208.942V96.933C208.942 97.245 208.994 97.4833 209.098 97.648C209.202 97.804 209.341 97.9123 209.514 97.973C209.688 98.025 209.865 98.051 210.047 98.051H213.479V99H209.826ZM216.849 99.052C216.641 99.052 216.42 99.0347 216.186 99C215.952 98.9567 215.731 98.8743 215.523 98.753C215.315 98.6317 215.146 98.4497 215.016 98.207C214.886 97.9557 214.821 97.6177 214.821 97.193V91.356C214.821 90.9833 214.873 90.6757 214.977 90.433C215.09 90.1817 215.237 89.9867 215.419 89.848C215.601 89.7007 215.805 89.5967 216.03 89.536C216.256 89.4667 216.481 89.432 216.706 89.432C217.244 89.4407 217.742 89.4537 218.201 89.471C218.661 89.4797 219.094 89.4927 219.501 89.51C219.917 89.5187 220.32 89.5317 220.71 89.549V90.381H216.966C216.628 90.381 216.36 90.472 216.16 90.654C215.961 90.836 215.861 91.1263 215.861 91.525V93.787L220.138 93.852V94.645L215.861 94.71V96.959C215.861 97.2797 215.913 97.5223 216.017 97.687C216.13 97.8517 216.277 97.96 216.459 98.012C216.641 98.064 216.828 98.09 217.018 98.09H220.71V98.922C220.312 98.948 219.891 98.9697 219.449 98.987C219.016 99.0043 218.578 99.0173 218.136 99.026C217.703 99.0347 217.274 99.0433 216.849 99.052ZM221.892 99L225.168 89.432H226.494L229.77 99H228.704L227.742 96.27H223.894L222.958 99H221.892ZM224.154 95.334H227.482L225.831 90.342L224.154 95.334ZM233.918 99.065C233.311 99.0737 232.809 98.9827 232.41 98.792C232.011 98.5927 231.699 98.2937 231.474 97.895C231.249 97.4963 231.088 96.9893 230.993 96.374C230.898 95.7587 230.85 95.0307 230.85 94.19C230.85 93.384 230.898 92.6777 230.993 92.071C231.097 91.4643 231.27 90.9617 231.513 90.563C231.756 90.1557 232.085 89.8523 232.501 89.653C232.926 89.4537 233.454 89.354 234.087 89.354C234.425 89.354 234.776 89.367 235.14 89.393C235.504 89.419 235.859 89.458 236.206 89.51C236.553 89.562 236.873 89.6227 237.168 89.692V90.472C236.995 90.446 236.752 90.42 236.44 90.394C236.128 90.3593 235.777 90.3333 235.387 90.316C235.006 90.2987 234.624 90.29 234.243 90.29C233.619 90.29 233.134 90.42 232.787 90.68C232.449 90.9313 232.211 91.3473 232.072 91.928C231.942 92.5 231.877 93.2583 231.877 94.203C231.877 94.9657 231.912 95.5983 231.981 96.101C232.059 96.6037 232.185 97.0023 232.358 97.297C232.531 97.5917 232.765 97.804 233.06 97.934C233.363 98.0553 233.745 98.116 234.204 98.116C234.611 98.116 235.032 98.064 235.465 97.96C235.898 97.856 236.267 97.7433 236.57 97.622V94.801H234.256V94.034C234.421 94.008 234.62 93.9863 234.854 93.969C235.088 93.9517 235.335 93.9387 235.595 93.93C235.864 93.9127 236.132 93.904 236.401 93.904C236.626 93.904 236.839 93.9083 237.038 93.917C237.237 93.917 237.411 93.93 237.558 93.956V99H236.804L236.648 98.324C236.336 98.48 235.937 98.6403 235.452 98.805C234.975 98.9697 234.464 99.0563 233.918 99.065ZM241.605 99.052C241.397 99.052 241.176 99.0347 240.942 99C240.708 98.9567 240.487 98.8743 240.279 98.753C240.071 98.6317 239.902 98.4497 239.772 98.207C239.642 97.9557 239.577 97.6177 239.577 97.193V91.356C239.577 90.9833 239.629 90.6757 239.733 90.433C239.846 90.1817 239.993 89.9867 240.175 89.848C240.357 89.7007 240.561 89.5967 240.786 89.536C241.012 89.4667 241.237 89.432 241.462 89.432C242 89.4407 242.498 89.4537 242.957 89.471C243.417 89.4797 243.85 89.4927 244.257 89.51C244.673 89.5187 245.076 89.5317 245.466 89.549V90.381H241.722C241.384 90.381 241.116 90.472 240.916 90.654C240.717 90.836 240.617 91.1263 240.617 91.525V93.787L244.894 93.852V94.645L240.617 94.71V96.959C240.617 97.2797 240.669 97.5223 240.773 97.687C240.886 97.8517 241.033 97.96 241.215 98.012C241.397 98.064 241.584 98.09 241.774 98.09H245.466V98.922C245.068 98.948 244.647 98.9697 244.205 98.987C243.772 99.0043 243.334 99.0173 242.892 99.026C242.459 99.0347 242.03 99.0433 241.605 99.052Z" fill="#888B91"/>
<path d="M358.816 73.12C358.08 73.12 357.312 73.088 356.512 73.024C355.712 72.96 354.984 72.88 354.328 72.784V70.456H358.576C359.84 70.456 360.792 70.032 361.432 69.184C362.072 68.32 362.392 67.04 362.392 65.344C361.992 65.424 361.552 65.496 361.072 65.56C360.592 65.624 360.096 65.664 359.584 65.68C359.088 65.696 358.584 65.704 358.072 65.704C356.936 65.704 356.016 65.56 355.312 65.272C354.608 64.968 354.088 64.52 353.752 63.928C353.432 63.336 353.272 62.608 353.272 61.744V59.224C353.272 58.248 353.456 57.464 353.824 56.872C354.208 56.28 354.72 55.848 355.36 55.576C356.016 55.304 356.752 55.168 357.568 55.168H360.208C361.024 55.168 361.752 55.304 362.392 55.576C363.032 55.832 363.568 56.288 364 56.944C364.448 57.584 364.784 58.48 365.008 59.632C365.248 60.768 365.368 62.216 365.368 63.976C365.368 65.656 365.216 67.08 364.912 68.248C364.624 69.416 364.192 70.36 363.616 71.08C363.056 71.8 362.368 72.32 361.552 72.64C360.752 72.96 359.84 73.12 358.816 73.12ZM358.864 63.16H362.392C362.392 62.104 362.336 61.232 362.224 60.544C362.112 59.84 361.936 59.296 361.696 58.912C361.472 58.512 361.184 58.232 360.832 58.072C360.496 57.912 360.096 57.832 359.632 57.832H358.216C357.832 57.832 357.488 57.896 357.184 58.024C356.896 58.136 356.664 58.336 356.488 58.624C356.328 58.896 356.248 59.288 356.248 59.8V61.216C356.248 61.744 356.344 62.152 356.536 62.44C356.744 62.712 357.04 62.904 357.424 63.016C357.808 63.112 358.288 63.16 358.864 63.16ZM375.839 72.976V68.968H367.871L367.295 67.504L373.367 55.288H376.415L370.799 66.448H375.839V62.536L376.463 60.64H378.815V66.448H380.855V68.488L378.815 68.968V72.976H375.839ZM386.479 73L397.207 55.432H399.175L388.519 73H386.479ZM385.447 64.624C384.279 64.624 383.455 64.36 382.975 63.832C382.511 63.288 382.279 62.504 382.279 61.48V58.576C382.279 57.552 382.511 56.776 382.975 56.248C383.439 55.704 384.279 55.432 385.495 55.432H387.919C389.103 55.432 389.927 55.704 390.391 56.248C390.871 56.776 391.111 57.552 391.111 58.576V61.48C391.111 62.504 390.871 63.288 390.391 63.832C389.927 64.36 389.087 64.624 387.871 64.624H385.447ZM385.807 62.704H387.535C388.159 62.704 388.591 62.584 388.831 62.344C389.071 62.088 389.191 61.656 389.191 61.048V59.008C389.191 58.368 389.071 57.936 388.831 57.712C388.607 57.472 388.191 57.352 387.583 57.352H385.855C385.311 57.352 384.895 57.456 384.607 57.664C384.335 57.872 384.199 58.32 384.199 59.008V61.048C384.199 61.624 384.311 62.048 384.535 62.32C384.775 62.576 385.199 62.704 385.807 62.704ZM397.903 72.928C396.735 72.928 395.911 72.664 395.431 72.136C394.967 71.592 394.735 70.808 394.735 69.784V66.88C394.735 65.856 394.967 65.08 395.431 64.552C395.895 64.008 396.735 63.736 397.951 63.736H400.399C401.583 63.736 402.407 64.008 402.871 64.552C403.351 65.08 403.591 65.856 403.591 66.88V69.784C403.591 70.808 403.351 71.592 402.871 72.136C402.407 72.664 401.567 72.928 400.351 72.928H397.903ZM398.263 71.008H399.967C400.607 71.008 401.047 70.888 401.287 70.648C401.543 70.392 401.671 69.96 401.671 69.352V67.312C401.671 66.672 401.543 66.24 401.287 66.016C401.047 65.776 400.623 65.656 400.015 65.656H398.311C397.783 65.656 397.375 65.76 397.087 65.968C396.799 66.176 396.655 66.624 396.655 67.312V69.352C396.655 69.928 396.767 70.352 396.991 70.624C397.231 70.88 397.655 71.008 398.263 71.008Z" fill="white"/>
<path d="M352.001 99V89.432H355.459C356.282 89.432 356.898 89.6357 357.305 90.043C357.721 90.4503 357.929 91.0657 357.929 91.889C357.929 92.2877 357.868 92.6343 357.747 92.929C357.626 93.2237 357.461 93.4663 357.253 93.657C357.054 93.839 356.828 93.9647 356.577 94.034C356.75 94.0773 356.932 94.151 357.123 94.255C357.322 94.3503 357.509 94.489 357.682 94.671C357.855 94.853 357.994 95.0827 358.098 95.36C358.211 95.6373 358.267 95.9667 358.267 96.348C358.267 97.024 358.159 97.557 357.942 97.947C357.725 98.3283 357.418 98.6013 357.019 98.766C356.62 98.922 356.144 99 355.589 99H352.001ZM353.041 98.077H355.563C355.91 98.077 356.209 98.025 356.46 97.921C356.72 97.8083 356.919 97.6177 357.058 97.349C357.205 97.0717 357.279 96.6817 357.279 96.179C357.279 95.8237 357.201 95.5203 357.045 95.269C356.898 95.0177 356.694 94.827 356.434 94.697C356.174 94.5583 355.884 94.489 355.563 94.489H353.041V98.077ZM353.041 93.67H355.524C355.931 93.67 356.265 93.5227 356.525 93.228C356.794 92.9333 356.932 92.5347 356.941 92.032C356.958 91.4167 356.824 90.9877 356.538 90.745C356.261 90.4937 355.901 90.368 355.459 90.368H353.041V93.67ZM359.275 99L362.551 89.432H363.877L367.153 99H366.087L365.125 96.27H361.277L360.341 99H359.275ZM361.537 95.334H364.865L363.214 90.342L361.537 95.334ZM370.104 99V90.368H367.153V89.432H374.095V90.368H371.144V99H370.104ZM377.595 99V90.368H374.644V89.432H381.586V90.368H378.635V99H377.595ZM384.701 99.052C384.493 99.052 384.272 99.0347 384.038 99C383.804 98.9567 383.583 98.8743 383.375 98.753C383.167 98.6317 382.998 98.4497 382.868 98.207C382.738 97.9557 382.673 97.6177 382.673 97.193V91.356C382.673 90.9833 382.725 90.6757 382.829 90.433C382.942 90.1817 383.089 89.9867 383.271 89.848C383.453 89.7007 383.657 89.5967 383.882 89.536C384.107 89.4667 384.333 89.432 384.558 89.432C385.095 89.4407 385.594 89.4537 386.053 89.471C386.512 89.4797 386.946 89.4927 387.353 89.51C387.769 89.5187 388.172 89.5317 388.562 89.549V90.381H384.818C384.48 90.381 384.211 90.472 384.012 90.654C383.813 90.836 383.713 91.1263 383.713 91.525V93.787L387.99 93.852V94.645L383.713 94.71V96.959C383.713 97.2797 383.765 97.5223 383.869 97.687C383.982 97.8517 384.129 97.96 384.311 98.012C384.493 98.064 384.679 98.09 384.87 98.09H388.562V98.922C388.163 98.948 387.743 98.9697 387.301 98.987C386.868 99.0043 386.43 99.0173 385.988 99.026C385.555 99.0347 385.126 99.0433 384.701 99.052ZM390.303 99V89.432H394.073C394.385 89.432 394.688 89.471 394.983 89.549C395.277 89.6183 395.542 89.7527 395.776 89.952C396.018 90.1513 396.209 90.4373 396.348 90.81C396.486 91.174 396.556 91.655 396.556 92.253C396.556 92.773 396.499 93.202 396.387 93.54C396.274 93.8693 396.127 94.1337 395.945 94.333C395.763 94.5237 395.563 94.6667 395.347 94.762C395.139 94.8487 394.935 94.9093 394.736 94.944L396.699 99H395.646L393.787 95.087C393.648 95.087 393.475 95.0827 393.267 95.074C393.059 95.0653 392.838 95.061 392.604 95.061C392.37 95.061 392.14 95.0567 391.915 95.048C391.698 95.0393 391.507 95.035 391.343 95.035V99H390.303ZM391.343 94.242H393.917C394.142 94.242 394.35 94.216 394.541 94.164C394.731 94.112 394.9 94.0167 395.048 93.878C395.195 93.7307 395.312 93.527 395.399 93.267C395.485 93.007 395.529 92.669 395.529 92.253C395.529 91.8543 395.485 91.5337 395.399 91.291C395.312 91.0397 395.191 90.849 395.035 90.719C394.887 90.5803 394.718 90.4893 394.528 90.446C394.337 90.394 394.133 90.368 393.917 90.368H391.343V94.242ZM400.708 99V95.828L397.666 89.432H398.745L401.241 94.788L403.737 89.432H404.777L401.748 95.828V99H400.708Z" fill="#888B91"/>
<circle cx="379" cy="16" r="16" fill="#111213"/>
<path d="M379.833 14.3333H385.667L378.167 25.1667V17.6667H372.333L379.833 6.83334V14.3333Z" fill="white"/>
</svg>
