<svg width="185" height="17" viewBox="0 0 185 17" fill="none" xmlns="http://www.w3.org/2000/svg">
<path d="M6 4C8.76 4 11 6.24 11 9C11 11.76 8.76 14 6 14C3.24 14 1 11.76 1 9C1 6.24 3.24 4 6 4ZM6 5C3.79 5 2 6.79 2 9C2 11.21 3.79 13 6 13C8.21 13 10 11.21 10 9C10 6.79 8.21 5 6 5ZM6 6.5C6.91 6.5 7.7065 6.9865 8.144 7.714L7.287 8.2285C7.15213 8.00362 6.96067 7.81803 6.7317 7.69022C6.50273 7.56242 6.24426 7.49687 5.98206 7.50011C5.71986 7.50336 5.46309 7.57528 5.23735 7.70871C5.01161 7.84214 4.8248 8.03241 4.69554 8.26056C4.56627 8.48871 4.49907 8.74675 4.50064 9.00897C4.50221 9.27119 4.57249 9.52841 4.70447 9.755C4.83646 9.98158 5.02553 10.1696 5.25285 10.3003C5.48017 10.431 5.73778 10.4999 6 10.5C6.25907 10.5002 6.51376 10.4332 6.73923 10.3056C6.9647 10.178 7.15325 9.99417 7.2865 9.772L8.144 10.286C7.86301 10.7553 7.43582 11.1195 6.92796 11.3227C6.4201 11.5259 5.85961 11.5568 5.33245 11.4109C4.80529 11.2649 4.34057 10.95 4.00957 10.5145C3.67857 10.079 3.49956 9.547 3.5 9C3.5 7.62 4.62 6.5 6 6.5Z" fill="#888B91"/>
<path d="M16.924 13V4.168H20.116C20.876 4.168 21.444 4.356 21.82 4.732C22.204 5.108 22.396 5.676 22.396 6.436C22.396 6.804 22.34 7.124 22.228 7.396C22.116 7.668 21.964 7.892 21.772 8.068C21.588 8.236 21.38 8.352 21.148 8.416C21.308 8.456 21.476 8.524 21.652 8.62C21.836 8.708 22.008 8.836 22.168 9.004C22.328 9.172 22.456 9.384 22.552 9.64C22.656 9.896 22.708 10.2 22.708 10.552C22.708 11.176 22.608 11.668 22.408 12.028C22.208 12.38 21.924 12.632 21.556 12.784C21.188 12.928 20.748 13 20.236 13H16.924ZM17.884 12.148H20.212C20.532 12.148 20.808 12.1 21.04 12.004C21.28 11.9 21.464 11.724 21.592 11.476C21.728 11.22 21.796 10.86 21.796 10.396C21.796 10.068 21.724 9.788 21.58 9.556C21.444 9.324 21.256 9.148 21.016 9.028C20.776 8.9 20.508 8.836 20.212 8.836H17.884V12.148ZM17.884 8.08H20.176C20.552 8.08 20.86 7.944 21.1 7.672C21.348 7.4 21.476 7.032 21.484 6.568C21.5 6 21.376 5.604 21.112 5.38C20.856 5.148 20.524 5.032 20.116 5.032H17.884V8.08ZM26.5905 13.072C25.9185 13.072 25.3865 12.972 24.9945 12.772C24.6105 12.572 24.3345 12.232 24.1665 11.752C23.9985 11.272 23.9145 10.616 23.9145 9.784C23.9145 8.936 23.9985 8.276 24.1665 7.804C24.3425 7.324 24.6265 6.988 25.0185 6.796C25.4105 6.604 25.9385 6.508 26.6025 6.508C27.1705 6.508 27.6305 6.572 27.9825 6.7C28.3425 6.828 28.6065 7.048 28.7745 7.36C28.9505 7.664 29.0385 8.088 29.0385 8.632C29.0385 9.008 28.9625 9.312 28.8105 9.544C28.6665 9.768 28.4545 9.932 28.1745 10.036C27.9025 10.132 27.5785 10.18 27.2025 10.18H24.8625C24.8705 10.7 24.9265 11.12 25.0305 11.44C25.1345 11.752 25.3225 11.98 25.5945 12.124C25.8745 12.26 26.2825 12.328 26.8185 12.328H28.8825V12.904C28.5145 12.952 28.1545 12.992 27.8025 13.024C27.4505 13.056 27.0465 13.072 26.5905 13.072ZM24.8505 9.556H27.1305C27.4905 9.556 27.7545 9.492 27.9225 9.364C28.0985 9.228 28.1865 8.988 28.1865 8.644C28.1865 8.276 28.1305 7.992 28.0185 7.792C27.9145 7.584 27.7465 7.44 27.5145 7.36C27.2905 7.272 26.9865 7.228 26.6025 7.228C26.1545 7.228 25.8025 7.296 25.5465 7.432C25.2905 7.56 25.1105 7.792 25.0065 8.128C24.9025 8.464 24.8505 8.94 24.8505 9.556ZM32.7107 13.072C32.1827 13.072 31.7467 12.96 31.4027 12.736C31.0667 12.504 30.8147 12.152 30.6467 11.68C30.4867 11.2 30.4067 10.588 30.4067 9.844C30.4067 9.052 30.4867 8.412 30.6467 7.924C30.8067 7.428 31.0627 7.068 31.4147 6.844C31.7667 6.62 32.2387 6.508 32.8307 6.508C33.1907 6.508 33.5427 6.548 33.8867 6.628C34.2307 6.708 34.5347 6.796 34.7987 6.892V3.844H35.7467V13H34.9787L34.7987 12.352C34.6787 12.456 34.4987 12.564 34.2587 12.676C34.0267 12.788 33.7707 12.884 33.4907 12.964C33.2187 13.036 32.9587 13.072 32.7107 13.072ZM32.9867 12.292C33.3547 12.292 33.6867 12.236 33.9827 12.124C34.2867 12.004 34.5587 11.88 34.7987 11.752V7.564C34.5107 7.476 34.2347 7.404 33.9707 7.348C33.7067 7.284 33.4107 7.252 33.0827 7.252C32.6747 7.252 32.3427 7.328 32.0867 7.48C31.8307 7.632 31.6427 7.896 31.5227 8.272C31.4107 8.64 31.3547 9.152 31.3547 9.808C31.3547 10.4 31.4067 10.88 31.5107 11.248C31.6227 11.616 31.7987 11.884 32.0387 12.052C32.2787 12.212 32.5947 12.292 32.9867 12.292ZM37.681 5.452C37.553 5.452 37.489 5.388 37.489 5.26V4.324C37.489 4.196 37.553 4.132 37.681 4.132H38.353C38.417 4.132 38.461 4.152 38.485 4.192C38.517 4.224 38.533 4.268 38.533 4.324V5.26C38.533 5.388 38.473 5.452 38.353 5.452H37.681ZM37.537 13V6.592H38.485V13H37.537ZM40.3143 13V6.592H41.0583L41.2623 7.3C41.5823 7.076 41.9383 6.884 42.3303 6.724C42.7303 6.564 43.1743 6.484 43.6623 6.484C44.0623 6.484 44.4023 6.576 44.6823 6.76C44.9703 6.936 45.1863 7.16 45.3303 7.432C45.5303 7.288 45.7703 7.144 46.0503 7C46.3383 6.856 46.6423 6.736 46.9623 6.64C47.2903 6.536 47.6063 6.484 47.9103 6.484C48.3743 6.484 48.7543 6.584 49.0503 6.784C49.3463 6.976 49.5623 7.24 49.6983 7.576C49.8423 7.904 49.9143 8.272 49.9143 8.68V13H48.9663V8.752C48.9663 8.48 48.9103 8.24 48.7983 8.032C48.6943 7.816 48.5423 7.648 48.3423 7.528C48.1423 7.408 47.8983 7.348 47.6103 7.348C47.2503 7.348 46.8823 7.416 46.5063 7.552C46.1303 7.688 45.7823 7.852 45.4623 8.044C45.5023 8.164 45.5303 8.284 45.5463 8.404C45.5703 8.516 45.5823 8.636 45.5823 8.764V13H44.6343V8.752C44.6343 8.48 44.5783 8.24 44.4663 8.032C44.3623 7.816 44.2103 7.648 44.0103 7.528C43.8183 7.408 43.5783 7.348 43.2903 7.348C43.0263 7.348 42.7783 7.376 42.5463 7.432C42.3223 7.48 42.1063 7.552 41.8983 7.648C41.6983 7.736 41.4863 7.844 41.2623 7.972V13H40.3143ZM54.0213 13.072C53.6613 13.072 53.3253 13.024 53.0133 12.928C52.7013 12.832 52.4293 12.664 52.1973 12.424C51.9653 12.184 51.7853 11.852 51.6573 11.428C51.5293 11.004 51.4653 10.464 51.4653 9.808C51.4653 9.144 51.5253 8.6 51.6453 8.176C51.7653 7.744 51.9373 7.408 52.1613 7.168C52.3853 6.928 52.6573 6.76 52.9773 6.664C53.2973 6.568 53.6533 6.52 54.0453 6.52C54.3653 6.52 54.7133 6.536 55.0893 6.568C55.4653 6.592 55.8253 6.632 56.1693 6.688V7.252H54.2973C53.8893 7.252 53.5453 7.32 53.2653 7.456C52.9853 7.592 52.7733 7.848 52.6293 8.224C52.4853 8.592 52.4133 9.128 52.4133 9.832C52.4133 10.512 52.4893 11.032 52.6413 11.392C52.7933 11.752 53.0093 12 53.2893 12.136C53.5693 12.264 53.9093 12.328 54.3092 12.328H56.2653V12.88C56.0813 12.912 55.8653 12.944 55.6173 12.976C55.3773 13.008 55.1213 13.032 54.8493 13.048C54.5773 13.064 54.3013 13.072 54.0213 13.072ZM60.1201 13.072C59.6561 13.072 59.2481 13.024 58.8961 12.928C58.5521 12.832 58.2641 12.664 58.0321 12.424C57.8001 12.184 57.6281 11.852 57.5161 11.428C57.4041 10.996 57.3481 10.448 57.3481 9.784C57.3481 9.112 57.4041 8.564 57.5161 8.14C57.6281 7.708 57.8001 7.376 58.0321 7.144C58.2641 6.904 58.5521 6.74 58.8961 6.652C59.2481 6.556 59.6561 6.508 60.1201 6.508C60.5841 6.508 60.9881 6.556 61.3321 6.652C61.6841 6.748 61.9761 6.916 62.2081 7.156C62.4401 7.388 62.6121 7.72 62.7241 8.152C62.8441 8.576 62.9041 9.12 62.9041 9.784C62.9041 10.456 62.8441 11.008 62.7241 11.44C62.6121 11.864 62.4401 12.196 62.2081 12.436C61.9841 12.668 61.6961 12.832 61.3441 12.928C60.9921 13.024 60.5841 13.072 60.1201 13.072ZM60.1201 12.292C60.4161 12.292 60.6761 12.264 60.9001 12.208C61.1321 12.152 61.3241 12.04 61.4761 11.872C61.6281 11.704 61.7441 11.452 61.8241 11.116C61.9041 10.78 61.9441 10.336 61.9441 9.784C61.9441 9.224 61.9041 8.78 61.8241 8.452C61.7441 8.124 61.6281 7.876 61.4761 7.708C61.3241 7.54 61.1321 7.428 60.9001 7.372C60.6761 7.316 60.4161 7.288 60.1201 7.288C59.8161 7.288 59.5521 7.316 59.3281 7.372C59.1041 7.428 58.9161 7.54 58.7641 7.708C58.6121 7.876 58.4961 8.124 58.4161 8.452C58.3361 8.78 58.2961 9.224 58.2961 9.784C58.2961 10.336 58.3361 10.78 58.4161 11.116C58.4961 11.452 58.6121 11.704 58.7641 11.872C58.9161 12.04 59.1041 12.152 59.3281 12.208C59.5521 12.264 59.8161 12.292 60.1201 12.292ZM66.5778 13.072C66.0498 13.072 65.6138 12.96 65.2698 12.736C64.9338 12.504 64.6818 12.152 64.5138 11.68C64.3538 11.2 64.2738 10.588 64.2738 9.844C64.2738 9.052 64.3538 8.412 64.5138 7.924C64.6738 7.428 64.9298 7.068 65.2818 6.844C65.6338 6.62 66.1058 6.508 66.6978 6.508C67.0578 6.508 67.4098 6.548 67.7538 6.628C68.0978 6.708 68.4018 6.796 68.6658 6.892V3.844H69.6138V13H68.8458L68.6658 12.352C68.5458 12.456 68.3658 12.564 68.1258 12.676C67.8938 12.788 67.6378 12.884 67.3578 12.964C67.0858 13.036 66.8258 13.072 66.5778 13.072ZM66.8538 12.292C67.2218 12.292 67.5538 12.236 67.8498 12.124C68.1538 12.004 68.4258 11.88 68.6658 11.752V7.564C68.3778 7.476 68.1018 7.404 67.8378 7.348C67.5738 7.284 67.2778 7.252 66.9498 7.252C66.5418 7.252 66.2098 7.328 65.9538 7.48C65.6978 7.632 65.5098 7.896 65.3898 8.272C65.2778 8.64 65.2218 9.152 65.2218 9.808C65.2218 10.4 65.2738 10.88 65.3778 11.248C65.4898 11.616 65.6658 11.884 65.9058 12.052C66.1458 12.212 66.4618 12.292 66.8538 12.292ZM73.8522 13.072C73.1802 13.072 72.6482 12.972 72.2562 12.772C71.8722 12.572 71.5962 12.232 71.4282 11.752C71.2602 11.272 71.1762 10.616 71.1762 9.784C71.1762 8.936 71.2602 8.276 71.4282 7.804C71.6042 7.324 71.8882 6.988 72.2802 6.796C72.6722 6.604 73.2002 6.508 73.8642 6.508C74.4322 6.508 74.8922 6.572 75.2442 6.7C75.6042 6.828 75.8682 7.048 76.0362 7.36C76.2122 7.664 76.3002 8.088 76.3002 8.632C76.3002 9.008 76.2242 9.312 76.0722 9.544C75.9282 9.768 75.7162 9.932 75.4362 10.036C75.1642 10.132 74.8402 10.18 74.4642 10.18H72.1242C72.1322 10.7 72.1882 11.12 72.2922 11.44C72.3962 11.752 72.5842 11.98 72.8562 12.124C73.1362 12.26 73.5442 12.328 74.0802 12.328H76.1442V12.904C75.7762 12.952 75.4162 12.992 75.0642 13.024C74.7122 13.056 74.3082 13.072 73.8522 13.072ZM72.1122 9.556H74.3922C74.7522 9.556 75.0162 9.492 75.1842 9.364C75.3602 9.228 75.4482 8.988 75.4482 8.644C75.4482 8.276 75.3922 7.992 75.2802 7.792C75.1762 7.584 75.0082 7.44 74.7762 7.36C74.5522 7.272 74.2482 7.228 73.8642 7.228C73.4162 7.228 73.0642 7.296 72.8082 7.432C72.5522 7.56 72.3722 7.792 72.2682 8.128C72.1642 8.464 72.1122 8.94 72.1122 9.556ZM77.9204 13.012C77.7924 13.012 77.7284 12.948 77.7284 12.82V11.86C77.7284 11.732 77.7924 11.668 77.9204 11.668H78.4484C78.5764 11.668 78.6404 11.732 78.6404 11.86V12.82C78.6404 12.884 78.6204 12.932 78.5804 12.964C78.5484 12.996 78.5044 13.012 78.4484 13.012H77.9204ZM83.0291 13L86.0531 4.168H87.2771L90.3011 13H89.3171L88.4291 10.48H84.8771L84.0131 13H83.0291ZM85.1171 9.616H88.1891L86.6651 5.008L85.1171 9.616ZM93.1818 13.012C92.8138 13.012 92.5058 12.948 92.2578 12.82C92.0098 12.684 91.8218 12.468 91.6938 12.172C91.5658 11.868 91.5018 11.46 91.5018 10.948V3.844H92.4498V10.828C92.4498 11.212 92.4858 11.504 92.5578 11.704C92.6298 11.896 92.7338 12.032 92.8698 12.112C93.0058 12.184 93.1658 12.232 93.3498 12.256L93.9978 12.328V13.012H93.1818ZM96.7092 13.012C96.3412 13.012 96.0332 12.948 95.7852 12.82C95.5372 12.684 95.3492 12.468 95.2212 12.172C95.0932 11.868 95.0292 11.46 95.0292 10.948V3.844H95.9772V10.828C95.9772 11.212 96.0132 11.504 96.0852 11.704C96.1572 11.896 96.2612 12.032 96.3972 12.112C96.5332 12.184 96.6932 12.232 96.8772 12.256L97.5252 12.328V13.012H96.7092ZM101.791 13V6.592H102.511L102.739 7.708C103.027 7.364 103.347 7.08 103.699 6.856C104.059 6.632 104.471 6.52 104.935 6.52C105.047 6.52 105.151 6.524 105.247 6.532C105.351 6.54 105.447 6.556 105.535 6.58V7.552C105.431 7.536 105.319 7.524 105.199 7.516C105.079 7.5 104.959 7.492 104.839 7.492C104.543 7.492 104.279 7.528 104.047 7.6C103.815 7.672 103.595 7.78 103.387 7.924C103.179 8.068 102.963 8.244 102.739 8.452V13H101.791ZM106.88 5.452C106.752 5.452 106.688 5.388 106.688 5.26V4.324C106.688 4.196 106.752 4.132 106.88 4.132H107.552C107.616 4.132 107.66 4.152 107.684 4.192C107.716 4.224 107.732 4.268 107.732 4.324V5.26C107.732 5.388 107.672 5.452 107.552 5.452H106.88ZM106.736 13V6.592H107.684V13H106.736ZM111.086 15.94C110.67 15.94 110.302 15.88 109.982 15.76C109.67 15.648 109.422 15.472 109.238 15.232C109.062 15 108.974 14.708 108.974 14.356V14.068C108.974 13.7 109.074 13.392 109.274 13.144C109.482 12.896 109.742 12.712 110.054 12.592C110.366 12.464 110.686 12.4 111.014 12.4L111.254 12.784C111.014 12.784 110.79 12.824 110.582 12.904C110.374 12.976 110.202 13.096 110.066 13.264C109.938 13.432 109.874 13.648 109.874 13.912V14.176C109.874 14.56 110.002 14.832 110.258 14.992C110.514 15.16 110.862 15.244 111.302 15.244H112.79C113.27 15.244 113.646 15.152 113.918 14.968C114.198 14.784 114.338 14.496 114.338 14.104V13.864C114.338 13.64 114.294 13.448 114.206 13.288C114.118 13.128 113.97 13.004 113.762 12.916C113.562 12.828 113.278 12.784 112.91 12.784H110.978C110.482 12.784 110.094 12.68 109.814 12.472C109.542 12.256 109.406 11.98 109.406 11.644C109.406 11.324 109.498 11.072 109.682 10.888C109.874 10.704 110.142 10.576 110.486 10.504C110.19 10.384 109.958 10.224 109.79 10.024C109.622 9.816 109.506 9.596 109.442 9.364C109.378 9.124 109.346 8.884 109.346 8.644C109.346 8.148 109.446 7.748 109.646 7.444C109.846 7.14 110.13 6.92 110.498 6.784C110.874 6.648 111.314 6.58 111.818 6.58H115.238V7.12L113.798 7.24C113.902 7.312 114.018 7.408 114.146 7.528C114.274 7.64 114.382 7.804 114.47 8.02C114.566 8.228 114.614 8.516 114.614 8.884C114.614 9.212 114.542 9.524 114.398 9.82C114.262 10.116 114.03 10.36 113.702 10.552C113.374 10.736 112.922 10.828 112.346 10.828H111.326C110.99 10.828 110.722 10.88 110.522 10.984C110.33 11.08 110.234 11.256 110.234 11.512C110.234 11.704 110.306 11.84 110.45 11.92C110.594 12 110.746 12.04 110.906 12.04H113.03C113.526 12.04 113.934 12.104 114.254 12.232C114.582 12.36 114.826 12.556 114.986 12.82C115.154 13.076 115.238 13.404 115.238 13.804V14.068C115.238 14.652 115.038 15.108 114.638 15.436C114.246 15.772 113.658 15.94 112.874 15.94H111.086ZM111.53 10.096H112.25C112.658 10.096 112.966 10.036 113.174 9.916C113.39 9.788 113.538 9.624 113.618 9.424C113.698 9.224 113.738 9.008 113.738 8.776C113.738 8.416 113.678 8.132 113.558 7.924C113.446 7.708 113.286 7.556 113.078 7.468C112.87 7.372 112.63 7.324 112.358 7.324H111.674C111.218 7.324 110.858 7.428 110.594 7.636C110.338 7.836 110.21 8.188 110.21 8.692C110.21 9.188 110.326 9.548 110.558 9.772C110.798 9.988 111.122 10.096 111.53 10.096ZM116.428 13V3.844H117.376V7.3C117.672 7.084 118.024 6.896 118.432 6.736C118.848 6.568 119.28 6.484 119.728 6.484C120.176 6.484 120.544 6.58 120.832 6.772C121.128 6.964 121.344 7.224 121.48 7.552C121.624 7.88 121.696 8.244 121.696 8.644V13H120.748V8.74C120.748 8.468 120.692 8.228 120.58 8.02C120.476 7.812 120.324 7.648 120.124 7.528C119.924 7.408 119.684 7.348 119.404 7.348C119.14 7.348 118.896 7.376 118.672 7.432C118.448 7.48 118.232 7.552 118.024 7.648C117.816 7.736 117.6 7.844 117.376 7.972V13H116.428ZM125.606 13C125.19 13 124.846 12.932 124.574 12.796C124.302 12.66 124.102 12.44 123.974 12.136C123.846 11.832 123.786 11.428 123.794 10.924L123.83 7.372H122.81V6.76L123.842 6.592L123.998 4.804H124.73V6.592H126.578V7.372H124.73V10.924C124.73 11.204 124.758 11.428 124.814 11.596C124.878 11.764 124.958 11.892 125.054 11.98C125.158 12.068 125.266 12.132 125.378 12.172C125.49 12.204 125.598 12.224 125.702 12.232L126.482 12.304V13H125.606ZM130.097 13.072C129.937 13.072 129.741 13.068 129.509 13.06C129.277 13.052 129.033 13.04 128.777 13.024C128.529 13.008 128.301 12.992 128.093 12.976C127.893 12.952 127.737 12.928 127.625 12.904V12.328H130.253C130.517 12.328 130.745 12.308 130.937 12.268C131.129 12.228 131.277 12.14 131.381 12.004C131.493 11.868 131.549 11.664 131.549 11.392V11.104C131.549 10.824 131.457 10.608 131.273 10.456C131.089 10.296 130.793 10.216 130.385 10.216H129.485C129.109 10.216 128.773 10.168 128.477 10.072C128.189 9.976 127.965 9.812 127.805 9.58C127.645 9.348 127.565 9.028 127.565 8.62V8.284C127.565 7.884 127.641 7.556 127.793 7.3C127.953 7.044 128.197 6.852 128.525 6.724C128.861 6.596 129.293 6.532 129.821 6.532C130.045 6.532 130.301 6.54 130.589 6.556C130.885 6.572 131.173 6.596 131.453 6.628C131.733 6.652 131.961 6.68 132.137 6.712V7.288H129.665C129.257 7.288 128.941 7.356 128.717 7.492C128.501 7.628 128.393 7.892 128.393 8.284V8.548C128.393 8.796 128.445 8.984 128.549 9.112C128.653 9.232 128.797 9.312 128.981 9.352C129.173 9.392 129.393 9.412 129.641 9.412H130.553C131.137 9.412 131.589 9.548 131.909 9.82C132.229 10.092 132.389 10.484 132.389 10.996V11.44C132.389 11.872 132.289 12.208 132.089 12.448C131.897 12.68 131.629 12.844 131.285 12.94C130.949 13.028 130.553 13.072 130.097 13.072ZM137.123 13V6.592H137.843L138.071 7.708C138.359 7.364 138.679 7.08 139.031 6.856C139.391 6.632 139.803 6.52 140.267 6.52C140.379 6.52 140.483 6.524 140.579 6.532C140.683 6.54 140.779 6.556 140.867 6.58V7.552C140.763 7.536 140.651 7.524 140.531 7.516C140.411 7.5 140.291 7.492 140.171 7.492C139.875 7.492 139.611 7.528 139.379 7.6C139.147 7.672 138.927 7.78 138.719 7.924C138.511 8.068 138.295 8.244 138.071 8.452V13H137.123ZM144.516 13.072C143.844 13.072 143.312 12.972 142.92 12.772C142.536 12.572 142.26 12.232 142.092 11.752C141.924 11.272 141.84 10.616 141.84 9.784C141.84 8.936 141.924 8.276 142.092 7.804C142.268 7.324 142.552 6.988 142.944 6.796C143.336 6.604 143.864 6.508 144.528 6.508C145.096 6.508 145.556 6.572 145.908 6.7C146.268 6.828 146.532 7.048 146.7 7.36C146.876 7.664 146.964 8.088 146.964 8.632C146.964 9.008 146.888 9.312 146.736 9.544C146.592 9.768 146.38 9.932 146.1 10.036C145.828 10.132 145.504 10.18 145.128 10.18H142.788C142.796 10.7 142.852 11.12 142.956 11.44C143.06 11.752 143.248 11.98 143.52 12.124C143.8 12.26 144.208 12.328 144.744 12.328H146.808V12.904C146.44 12.952 146.08 12.992 145.728 13.024C145.376 13.056 144.972 13.072 144.516 13.072ZM142.776 9.556H145.056C145.416 9.556 145.68 9.492 145.848 9.364C146.024 9.228 146.112 8.988 146.112 8.644C146.112 8.276 146.056 7.992 145.944 7.792C145.84 7.584 145.672 7.44 145.44 7.36C145.216 7.272 144.912 7.228 144.528 7.228C144.08 7.228 143.728 7.296 143.472 7.432C143.216 7.56 143.036 7.792 142.932 8.128C142.828 8.464 142.776 8.94 142.776 9.556ZM150.768 13.072C150.608 13.072 150.412 13.068 150.18 13.06C149.948 13.052 149.704 13.04 149.448 13.024C149.2 13.008 148.972 12.992 148.764 12.976C148.564 12.952 148.408 12.928 148.296 12.904V12.328H150.924C151.188 12.328 151.416 12.308 151.608 12.268C151.8 12.228 151.948 12.14 152.052 12.004C152.164 11.868 152.22 11.664 152.22 11.392V11.104C152.22 10.824 152.128 10.608 151.944 10.456C151.76 10.296 151.464 10.216 151.056 10.216H150.156C149.78 10.216 149.444 10.168 149.148 10.072C148.86 9.976 148.636 9.812 148.476 9.58C148.316 9.348 148.236 9.028 148.236 8.62V8.284C148.236 7.884 148.312 7.556 148.464 7.3C148.624 7.044 148.868 6.852 149.196 6.724C149.532 6.596 149.964 6.532 150.492 6.532C150.716 6.532 150.972 6.54 151.26 6.556C151.556 6.572 151.844 6.596 152.124 6.628C152.404 6.652 152.632 6.68 152.808 6.712V7.288H150.336C149.928 7.288 149.612 7.356 149.388 7.492C149.172 7.628 149.064 7.892 149.064 8.284V8.548C149.064 8.796 149.116 8.984 149.22 9.112C149.324 9.232 149.468 9.312 149.652 9.352C149.844 9.392 150.064 9.412 150.312 9.412H151.224C151.808 9.412 152.26 9.548 152.58 9.82C152.9 10.092 153.06 10.484 153.06 10.996V11.44C153.06 11.872 152.96 12.208 152.76 12.448C152.568 12.68 152.3 12.844 151.956 12.94C151.62 13.028 151.224 13.072 150.768 13.072ZM157.008 13.072C156.336 13.072 155.804 12.972 155.412 12.772C155.028 12.572 154.752 12.232 154.584 11.752C154.416 11.272 154.332 10.616 154.332 9.784C154.332 8.936 154.416 8.276 154.584 7.804C154.76 7.324 155.044 6.988 155.436 6.796C155.828 6.604 156.356 6.508 157.02 6.508C157.588 6.508 158.048 6.572 158.4 6.7C158.76 6.828 159.024 7.048 159.192 7.36C159.368 7.664 159.456 8.088 159.456 8.632C159.456 9.008 159.38 9.312 159.228 9.544C159.084 9.768 158.872 9.932 158.592 10.036C158.32 10.132 157.996 10.18 157.62 10.18H155.28C155.288 10.7 155.344 11.12 155.448 11.44C155.552 11.752 155.74 11.98 156.012 12.124C156.292 12.26 156.7 12.328 157.236 12.328H159.3V12.904C158.932 12.952 158.572 12.992 158.22 13.024C157.868 13.056 157.464 13.072 157.008 13.072ZM155.268 9.556H157.548C157.908 9.556 158.172 9.492 158.34 9.364C158.516 9.228 158.604 8.988 158.604 8.644C158.604 8.276 158.548 7.992 158.436 7.792C158.332 7.584 158.164 7.44 157.932 7.36C157.708 7.272 157.404 7.228 157.02 7.228C156.572 7.228 156.22 7.296 155.964 7.432C155.708 7.56 155.528 7.792 155.424 8.128C155.32 8.464 155.268 8.94 155.268 9.556ZM161.053 13V6.592H161.773L162.001 7.708C162.289 7.364 162.609 7.08 162.961 6.856C163.321 6.632 163.733 6.52 164.197 6.52C164.309 6.52 164.413 6.524 164.509 6.532C164.613 6.54 164.709 6.556 164.797 6.58V7.552C164.693 7.536 164.581 7.524 164.461 7.516C164.341 7.5 164.221 7.492 164.101 7.492C163.805 7.492 163.541 7.528 163.309 7.6C163.077 7.672 162.857 7.78 162.649 7.924C162.441 8.068 162.225 8.244 162.001 8.452V13H161.053ZM167.726 13L165.314 6.592H166.286L168.278 12.112L170.33 6.592H171.29L168.806 13H167.726ZM174.645 13.072C173.973 13.072 173.441 12.972 173.049 12.772C172.665 12.572 172.389 12.232 172.221 11.752C172.053 11.272 171.969 10.616 171.969 9.784C171.969 8.936 172.053 8.276 172.221 7.804C172.397 7.324 172.681 6.988 173.073 6.796C173.465 6.604 173.993 6.508 174.657 6.508C175.225 6.508 175.685 6.572 176.037 6.7C176.397 6.828 176.661 7.048 176.829 7.36C177.005 7.664 177.093 8.088 177.093 8.632C177.093 9.008 177.017 9.312 176.865 9.544C176.721 9.768 176.509 9.932 176.229 10.036C175.957 10.132 175.633 10.18 175.257 10.18H172.917C172.925 10.7 172.981 11.12 173.085 11.44C173.189 11.752 173.377 11.98 173.649 12.124C173.929 12.26 174.337 12.328 174.873 12.328H176.937V12.904C176.569 12.952 176.209 12.992 175.857 13.024C175.505 13.056 175.101 13.072 174.645 13.072ZM172.905 9.556H175.185C175.545 9.556 175.809 9.492 175.977 9.364C176.153 9.228 176.241 8.988 176.241 8.644C176.241 8.276 176.185 7.992 176.073 7.792C175.969 7.584 175.801 7.44 175.569 7.36C175.345 7.272 175.041 7.228 174.657 7.228C174.209 7.228 173.857 7.296 173.601 7.432C173.345 7.56 173.165 7.792 173.061 8.128C172.957 8.464 172.905 8.94 172.905 9.556ZM180.765 13.072C180.237 13.072 179.801 12.96 179.457 12.736C179.121 12.504 178.869 12.152 178.701 11.68C178.541 11.2 178.461 10.588 178.461 9.844C178.461 9.052 178.541 8.412 178.701 7.924C178.861 7.428 179.117 7.068 179.469 6.844C179.821 6.62 180.293 6.508 180.885 6.508C181.245 6.508 181.597 6.548 181.941 6.628C182.285 6.708 182.589 6.796 182.853 6.892V3.844H183.801V13H183.033L182.853 12.352C182.733 12.456 182.553 12.564 182.313 12.676C182.081 12.788 181.825 12.884 181.545 12.964C181.273 13.036 181.013 13.072 180.765 13.072ZM181.041 12.292C181.409 12.292 181.741 12.236 182.037 12.124C182.341 12.004 182.613 11.88 182.853 11.752V7.564C182.565 7.476 182.289 7.404 182.025 7.348C181.761 7.284 181.465 7.252 181.137 7.252C180.729 7.252 180.397 7.328 180.141 7.48C179.885 7.632 179.697 7.896 179.577 8.272C179.465 8.64 179.409 9.152 179.409 9.808C179.409 10.4 179.461 10.88 179.565 11.248C179.677 11.616 179.853 11.884 180.093 12.052C180.333 12.212 180.649 12.292 181.041 12.292Z" fill="#888B91"/>
</svg>
